<mxfile host="app.diagrams.net" agent="Mozilla/5.0 (Windows NT 10.0; Win64; x64) AppleWebKit/537.36 (KHTML, like Gecko) Chrome/138.0.0.0 Safari/537.36" version="28.0.7">
  <diagram name="Trang-1" id="13fvjdlcboOZi4hpFnMQ">
    <mxGraphModel dx="1426" dy="785" grid="1" gridSize="10" guides="1" tooltips="1" connect="1" arrows="1" fold="1" page="1" pageScale="1" pageWidth="827" pageHeight="1169" math="0" shadow="0">
      <root>
        <mxCell id="0" />
        <mxCell id="1" parent="0" />
        <mxCell id="KtxfmhvGYq7J2-BO2nsI-14" style="edgeStyle=orthogonalEdgeStyle;rounded=0;orthogonalLoop=1;jettySize=auto;html=1;exitX=0.5;exitY=1;exitDx=0;exitDy=0;entryX=0.5;entryY=0;entryDx=0;entryDy=0;" edge="1" parent="1" source="KtxfmhvGYq7J2-BO2nsI-1" target="KtxfmhvGYq7J2-BO2nsI-11">
          <mxGeometry relative="1" as="geometry" />
        </mxCell>
        <mxCell id="KtxfmhvGYq7J2-BO2nsI-15" style="edgeStyle=orthogonalEdgeStyle;rounded=0;orthogonalLoop=1;jettySize=auto;html=1;exitX=0;exitY=0.5;exitDx=0;exitDy=0;" edge="1" parent="1" source="KtxfmhvGYq7J2-BO2nsI-1" target="KtxfmhvGYq7J2-BO2nsI-6">
          <mxGeometry relative="1" as="geometry" />
        </mxCell>
        <mxCell id="KtxfmhvGYq7J2-BO2nsI-16" style="edgeStyle=orthogonalEdgeStyle;rounded=0;orthogonalLoop=1;jettySize=auto;html=1;exitX=0.008;exitY=0.133;exitDx=0;exitDy=0;entryX=0.5;entryY=1;entryDx=0;entryDy=0;exitPerimeter=0;" edge="1" parent="1" source="KtxfmhvGYq7J2-BO2nsI-1" target="KtxfmhvGYq7J2-BO2nsI-2">
          <mxGeometry relative="1" as="geometry" />
        </mxCell>
        <mxCell id="KtxfmhvGYq7J2-BO2nsI-17" style="edgeStyle=orthogonalEdgeStyle;rounded=0;orthogonalLoop=1;jettySize=auto;html=1;exitX=0.25;exitY=0;exitDx=0;exitDy=0;entryX=0.5;entryY=1;entryDx=0;entryDy=0;" edge="1" parent="1" source="KtxfmhvGYq7J2-BO2nsI-1" target="KtxfmhvGYq7J2-BO2nsI-3">
          <mxGeometry relative="1" as="geometry" />
        </mxCell>
        <mxCell id="KtxfmhvGYq7J2-BO2nsI-18" style="edgeStyle=orthogonalEdgeStyle;rounded=0;orthogonalLoop=1;jettySize=auto;html=1;exitX=0.75;exitY=0;exitDx=0;exitDy=0;entryX=0.5;entryY=1;entryDx=0;entryDy=0;" edge="1" parent="1" source="KtxfmhvGYq7J2-BO2nsI-1" target="KtxfmhvGYq7J2-BO2nsI-4">
          <mxGeometry relative="1" as="geometry" />
        </mxCell>
        <mxCell id="KtxfmhvGYq7J2-BO2nsI-19" style="edgeStyle=orthogonalEdgeStyle;rounded=0;orthogonalLoop=1;jettySize=auto;html=1;exitX=1;exitY=0.5;exitDx=0;exitDy=0;entryX=0;entryY=0.5;entryDx=0;entryDy=0;" edge="1" parent="1" source="KtxfmhvGYq7J2-BO2nsI-1" target="KtxfmhvGYq7J2-BO2nsI-7">
          <mxGeometry relative="1" as="geometry" />
        </mxCell>
        <mxCell id="KtxfmhvGYq7J2-BO2nsI-20" style="edgeStyle=orthogonalEdgeStyle;rounded=0;orthogonalLoop=1;jettySize=auto;html=1;exitX=1;exitY=0.25;exitDx=0;exitDy=0;entryX=0.5;entryY=1;entryDx=0;entryDy=0;" edge="1" parent="1" source="KtxfmhvGYq7J2-BO2nsI-1" target="KtxfmhvGYq7J2-BO2nsI-5">
          <mxGeometry relative="1" as="geometry" />
        </mxCell>
        <mxCell id="KtxfmhvGYq7J2-BO2nsI-1" value="Trang Chủ&lt;div&gt;(index.php)&lt;/div&gt;" style="rounded=1;whiteSpace=wrap;html=1;fillColor=#ffe6cc;strokeColor=#d79b00;" vertex="1" parent="1">
          <mxGeometry x="320" y="280" width="120" height="60" as="geometry" />
        </mxCell>
        <mxCell id="KtxfmhvGYq7J2-BO2nsI-2" value="Đăng Nhập&lt;div&gt;(login.php)&lt;/div&gt;" style="rounded=0;whiteSpace=wrap;html=1;fillColor=#dae8fc;strokeColor=#6c8ebf;" vertex="1" parent="1">
          <mxGeometry x="80" y="180" width="120" height="60" as="geometry" />
        </mxCell>
        <mxCell id="KtxfmhvGYq7J2-BO2nsI-3" value="Đăng Kí&lt;div&gt;(register.php)&lt;/div&gt;" style="rounded=0;whiteSpace=wrap;html=1;fillColor=#dae8fc;fontColor=#333333;strokeColor=#6c8ebf;" vertex="1" parent="1">
          <mxGeometry x="240" y="180" width="120" height="60" as="geometry" />
        </mxCell>
        <mxCell id="KtxfmhvGYq7J2-BO2nsI-4" value="Giỏ Hàng&lt;div&gt;(cart.php)&lt;/div&gt;" style="rounded=0;whiteSpace=wrap;html=1;fillColor=#dae8fc;strokeColor=#6c8ebf;" vertex="1" parent="1">
          <mxGeometry x="400" y="180" width="120" height="60" as="geometry" />
        </mxCell>
        <mxCell id="KtxfmhvGYq7J2-BO2nsI-5" value="Thanh Toán&lt;div&gt;(checkout.php)&lt;/div&gt;" style="rounded=0;whiteSpace=wrap;html=1;fillColor=#dae8fc;strokeColor=#6c8ebf;" vertex="1" parent="1">
          <mxGeometry x="560" y="180" width="120" height="60" as="geometry" />
        </mxCell>
        <mxCell id="KtxfmhvGYq7J2-BO2nsI-6" value="Liên Hệ&lt;div&gt;(contact.php)&lt;/div&gt;" style="rounded=0;whiteSpace=wrap;html=1;fillColor=#dae8fc;strokeColor=#6c8ebf;" vertex="1" parent="1">
          <mxGeometry x="80" y="300" width="120" height="60" as="geometry" />
        </mxCell>
        <mxCell id="KtxfmhvGYq7J2-BO2nsI-7" value="Giới Thiệu&lt;div&gt;(about.php)&lt;/div&gt;" style="rounded=0;whiteSpace=wrap;html=1;fillColor=#dae8fc;strokeColor=#6c8ebf;" vertex="1" parent="1">
          <mxGeometry x="560" y="300" width="120" height="60" as="geometry" />
        </mxCell>
        <mxCell id="KtxfmhvGYq7J2-BO2nsI-9" value="Dashboard&lt;div&gt;(dashboard.php)&lt;/div&gt;" style="rounded=0;whiteSpace=wrap;html=1;fillColor=#f8cecc;strokeColor=#b85450;" vertex="1" parent="1">
          <mxGeometry x="320" y="500" width="120" height="60" as="geometry" />
        </mxCell>
        <mxCell id="KtxfmhvGYq7J2-BO2nsI-10" value="Quản Lý Đơn Hàng" style="rounded=0;whiteSpace=wrap;html=1;fillColor=#f8cecc;strokeColor=#b85450;" vertex="1" parent="1">
          <mxGeometry x="140" y="480" width="120" height="60" as="geometry" />
        </mxCell>
        <mxCell id="KtxfmhvGYq7J2-BO2nsI-23" style="edgeStyle=orthogonalEdgeStyle;rounded=0;orthogonalLoop=1;jettySize=auto;html=1;exitX=0.75;exitY=1;exitDx=0;exitDy=0;entryX=-0.008;entryY=0.117;entryDx=0;entryDy=0;entryPerimeter=0;" edge="1" parent="1" source="KtxfmhvGYq7J2-BO2nsI-11" target="KtxfmhvGYq7J2-BO2nsI-12">
          <mxGeometry relative="1" as="geometry" />
        </mxCell>
        <mxCell id="KtxfmhvGYq7J2-BO2nsI-24" style="edgeStyle=orthogonalEdgeStyle;rounded=0;orthogonalLoop=1;jettySize=auto;html=1;exitX=0.5;exitY=1;exitDx=0;exitDy=0;entryX=0.5;entryY=0;entryDx=0;entryDy=0;" edge="1" parent="1" source="KtxfmhvGYq7J2-BO2nsI-11" target="KtxfmhvGYq7J2-BO2nsI-9">
          <mxGeometry relative="1" as="geometry" />
        </mxCell>
        <mxCell id="KtxfmhvGYq7J2-BO2nsI-11" value="Quản Lý Sản Phẩm" style="rounded=0;whiteSpace=wrap;html=1;fillColor=#dae8fc;strokeColor=#6c8ebf;" vertex="1" parent="1">
          <mxGeometry x="320" y="400" width="120" height="60" as="geometry" />
        </mxCell>
        <mxCell id="KtxfmhvGYq7J2-BO2nsI-12" value="Quản Lý Người Dùng" style="rounded=0;whiteSpace=wrap;html=1;fillColor=#f8cecc;strokeColor=#b85450;" vertex="1" parent="1">
          <mxGeometry x="480" y="480" width="120" height="60" as="geometry" />
        </mxCell>
        <mxCell id="KtxfmhvGYq7J2-BO2nsI-21" style="edgeStyle=orthogonalEdgeStyle;rounded=0;orthogonalLoop=1;jettySize=auto;html=1;exitX=0.25;exitY=1;exitDx=0;exitDy=0;entryX=0.992;entryY=0.133;entryDx=0;entryDy=0;entryPerimeter=0;strokeColor=default;" edge="1" parent="1" source="KtxfmhvGYq7J2-BO2nsI-11" target="KtxfmhvGYq7J2-BO2nsI-10">
          <mxGeometry relative="1" as="geometry" />
        </mxCell>
      </root>
    </mxGraphModel>
  </diagram>
</mxfile>
